<svg xmlns="http://www.w3.org/2000/svg" width="22" height="15" viewBox="0 0 70 48"><rect width="70" height="48" fill="#D6E2E8" rx="5"/><path fill="#003F62" d="M37.6 17.7c.7 0 1.4-.3 2.2-.4l3.8-.4v-.2c-.6-1-1.7-1.7-2.8-1.7-.5 0-1 .2-1.4.4h-.2c-1 .6-1.4 1.4-1.6 2.3z"/><path fill="#003F62" d="M57.3 19.4c0-.3-.3-.7-.6-.8h-11c-1.8 0-3.5.3-5 .5-3.7.6-6.2 1.4-6.2 1.4-.3 0-.6.5-.6.8l.5 11.7v.3h.6C0 0 39 32 45.4 31.5l1.8 4.7-7 2.7-8.2 3L26 27.2l-5.5-14.5L35.8 7l2.3 6s-.3 0-.4.2c-5.5 3-9 6.5-9 6.5-.3.2-.4.7-.2 1l4.5 7.8-.5-7.3c0-1 .6-2 1.5-2.2l2.6-.7c0-.3 0-.7.2-1 .4-1 1-2 2-2.5h.2c.6-.3 1.3-.5 2-.5 1.7 0 3 1 4 2.4v.5H54L49 9c-.2-.4-.6-.6-1-.5 0 0-2 .4-7 3l-3.3-8.6C37 1.3 35.3.5 33.7 1L18 6.5c-1.6.6-2.4 2.3-1.8 4l13.6 35c.6 1.5 2.4 2.3 4 1.7L49 41.4c1.6-.6 2.4-2.3 1.8-4L48.4 31H55c.2 0 .3 0 .5.2h.7s.2 0 .3.2H58V31l-.7-11.6zm-13 21.4l-6 2.2c-.3 0-.7 0-.8-.4 0-.3 0-.7.3-.8l6-2.2c.2 0 .6 0 .7.4 0 .4 0 .7-.3.8zm1.5-12c-.6 0-1 0-1.6-.3-1.6-.6-2.7-2.2-2.7-4 0-.7.2-1.3.4-2 .6-1.3 2-2.3 3.8-2.3 2.4 0 4.4 2 4.4 4.3 0 2.4-2 4.3-4.4 4.3z"/><path fill="#003F62" d="M45.8 27.7c1.8 0 3.2-1.4 3.2-3 0-1.8-1.4-3.2-3.2-3.2-1.8 0-3.2 1.4-3.2 3 0 1 .3 1.6.8 2 .6.8 1.4 1.2 2.4 1.2z"/></svg>