<svg xmlns="http://www.w3.org/2000/svg" width="22" height="15" viewBox="0 0 70 48"><path fill="#E9272B" d="M2.8 0C1.3 0 0 1.8 0 4v40c0 2.2 1.3 4 2.8 4H24V0H2.8z"/><path fill="#0E8A8F" d="M66.5 0H46v48h21c1.6 0 3-1.8 3-4V4c0-2.2-1.8-4-3.5-4z"/><path fill="#00589F" d="M23.5 0h23v48h-23z"/><path fill="#FFF" d="M38.6 31.2H42l1-3.5h-3.4l-1 3.5zm2.7-9.6l-1.2 4 4-1 .7-3h-3.4m1.7-6l-1 4 3.6-1 .8-3H43m7.6 0l-4.4 15.5h1.2l-1 3.3h-1l-.4 1h-4.2l.3-1h-8.4l.8-3h1l5.2-18.7H44l-.5 1.6 2.2-1.2 7.3-.4-1 3h-1.4"/><path fill="#FFF" d="M52.4 12.6H57v1.8l.8.4h1l-1 3h-2.4l-3-2v-3.2m.6 14h-4.3l.7-2.6h5l.7-2.4h-4.8l.8-3h13.7l-1 3h-4.4l-.8 2.4H63l-.6 2.7h-5l-1 1h2l.8 4 1.7.3-1 3.2h-2.7l-1-.5-1-1-.4-3.4-2.4 3.2-3.3 2h-3l.7-3 2-.3 4-5.5M5.5 19.4H17l-1 3h-4.5l-.7 2.4h4.7l-.8 3H10l-1.2 4 1.6.6 2.3-.4-1 3.4-6.4-.2-.8-.7-.3-1.3L5.7 28H3l1-3.2h2.6l.7-2.4H4.6l1-3m7.6-5.2H18l-1 3h-6.4l-1.5 1-4 .7.8-3 1.7-.2 2-3.2H14l-.8 1.6m9 5l3.6-1.7h3.6l.5-1.8h-6.7l-1 3.5zm6.3 1.3H22l-.5 1.4H28l.5-1.5m-8.5-8h4l-.6 2.2 2.2-1.5 9.4-.7L31.6 23l-1 1-1.6.6h-8.3l-2 7.4.7.3 2.8-.3-1 3.4-6.5-.4-.7-1 6-21.4"/><path fill="#FFF" d="M31.7 25.2l-1 3.3-2.3.8h-2.2v2.2l.2.7.3.2 2.8-.2-1 3L23 35l-.5-1.3.2-8.3h4V27H28l.6-1.8h3m35-12.5L64.8 16l-3.2 1.8h-2.8l.8-3h1.2l1.4-2h4.4"/></svg>