<svg width="134" height="35" viewBox="0 0 564 148" xmlns="http://www.w3.org/2000/svg">
    <defs>
        <linearGradient x1="20%" y1="-265%" x2="64%" y2="167%" id="a">
            <stop stop-color="#00A8CF" offset="0%"/>
            <stop stop-color="#223A80" offset="100%"/>
        </linearGradient>
        <linearGradient x1="27%" y1="-176%" x2="76%" y2="276%" id="b">
            <stop stop-color="#00A8CF" offset="0%"/>
            <stop stop-color="#223A80" offset="100%"/>
        </linearGradient>
        <linearGradient x1="22%" y1="-192%" x2="122%" y2="528%" id="c">
            <stop stop-color="#00A8CF" offset="0%"/>
            <stop stop-color="#223A80" offset="100%"/>
        </linearGradient>
        <linearGradient x1="5%" y1="-448%" x2="55%" y2="75%" id="d">
            <stop stop-color="#00A8CF" offset="0%"/>
            <stop stop-color="#223A80" offset="100%"/>
        </linearGradient>
        <linearGradient x1="40%" y1="-46%" x2="115%" y2="708%" id="e">
            <stop stop-color="#00A8CF" offset="0%"/>
            <stop stop-color="#223A80" offset="100%"/>
        </linearGradient>
        <linearGradient x1="35%" y1="-28%" x2="76%" y2="252%" id="f">
            <stop stop-color="#00A8CF" offset="0%"/>
            <stop stop-color="#223A80" offset="100%"/>
        </linearGradient>
        <linearGradient x1="30%" y1="-87%" x2="66%" y2="169%" id="g">
            <stop stop-color="#00A8CF" offset="0%"/>
            <stop stop-color="#223A80" offset="100%"/>
        </linearGradient>
        <linearGradient x1="25%" y1="-178%" x2="62%" y2="104%" id="h">
            <stop stop-color="#00A8CF" offset="0%"/>
            <stop stop-color="#223A80" offset="100%"/>
        </linearGradient>
        <linearGradient x1="9%" y1="-374%" x2="54%" y2="42%" id="i">
            <stop stop-color="#00A8CF" offset="0%"/>
            <stop stop-color="#223A80" offset="100%"/>
        </linearGradient>
    </defs>

    <path d="M4 69c.2 0 0 1.8 2.2 3.7 2 2 5.8 3.7 10.5 5.2 9.4 3 22.8 5 37 5.8 28.2 2 59.4-.7 70.6-2.5 11-1.7 25.2-3.7 33.3-9.3 4.5-3 .7-6.8-2-8.4-2.7-1.8-4.5-2.7-4.3-3 0-.2 2 0 5.2 1.5 1.5.8 3.4 2 5 4 2 2.4.5 6.5-1.8 8.3-9.4 7.4-23.3 9.4-34.8 11.3-11.7 2-43.2 3.6-71.6.4-14.2-1.5-27.5-4-37-7.4C11.8 77 8 75 6 73c-2-2.2-1.8-4-2-4z" fill="url(#a)"/>
    <path d="M14 34.8c-1 .3 2.3 6 11.5 8 8.6 2.6 20.8 4.3 33.7 5 25.8 1.7 54-1.2 64.3-3.2 5-1 10.7-2 16-3.5 4.7-1.3 11-4.2 10.2-7-5-6.3-13.8-7.7-13-8.5 0-.3 2 0 4.8.7 2.8 1 7.5 1.4 11 6.7 1.4 3.6-1.7 6.8-4 8.2-2.4 1.7-5 2.7-7.8 3.8-5.5 2-11.2 3-16.5 4-10.5 2-39.3 3.8-65.2 1-13-1.3-25-3.6-33.7-6.6-4.3-1.5-7.7-3.3-9.5-5-2-2-1.8-3.7-2-3.6z" fill="url(#b)"/>
    <path d="M47.5 8.5c-1.8 2 10.6 6 24 5.2 13.6 0 28.3-2.4 33.6-3.7 2.7-.6 5.6-1.2 8.2-2 2.6-.8 5.2-2.7 4.6-3-2.2-2.6-7-3.7-6.6-4.3 0 0 4-1.6 9.2 3 1.6 2-.4 4.8-1.6 5.5-1.3 1-2.8 1.8-4.2 2.4-3 1.3-6 2-8.7 2.7-5.7 1.3-21 2.7-34.6 1.6-13.5-.5-25.8-5.6-24-7.5z" fill="url(#c)"/>
    <path d="M146.4 98.5s1.3.5 3 2c2.6 1.3 2.8 6.5-1.5 8.6-7.4 4.8-19 7.3-31 9.2-24 3.7-51 3-61 2-9.8-1-21.5-2.8-30.3-6-4.4-1.6-8-3.5-10.3-5.7-2.3-2.2-2-4.5-1.7-4.4-.3.6 3.6 5.3 13 7.2 8.6 2.3 20 3.7 29.8 4.6 9.7 1 36.3 2.8 60.3.2 12-1.3 23.4-3.3 30.7-7.5 4.2-2 4-6.4 1.8-7.8-1.6-1.6-3-2-3-2.2z" fill="url(#d)"/>
    <path d="M37.8 14c3 2.2 12.6 4.8 23 4.7 13.5.6 28.3-1.2 33.6-2.2 2.7-.4 5.6-1 8.2-1.8 2.6-.6 5.3-2.4 4.7-2.6l-.4-.3C96.6 6.3 85 3.3 73 3.3c-13.2 0-25.5 3.5-36 9.5 0 .5.4 1 .8 1.3z" fill="url(#e)"/>
    <path d="M49.5 54.4c25.8 1.7 54-1.2 64.3-3.2 5-1 10.7-2 16-3.5 2.8-1 6.3-2.3 8.4-4-1.5-3-3.2-5.8-5-8.6-3.7-1.7-6.7-2.5-6.2-3 0-.2 1.7 0 4.3.5-5.7-7.6-12.8-14-21-19-.3 1.3-1.3 2.4-2 2.8-1.4 1-3 1.7-4.3 2.2-3 1-6 1.8-8.8 2.3-5.6 1-21 1.8-34.5 0-12.5-.8-23.6-5.6-24-7.8-13 7.4-23.3 18.7-29.7 32.3 2 1.5 4.8 3 8.8 4 8.6 2.6 20.8 4.4 33.7 5z" fill="url(#f)"/>
    <path d="M44 90.4c28.2 2 59.4-.7 70.6-2.5 10-1.6 22.6-3.4 31-8v-4c0-2 0-4-.3-6.2-2.3-1.5-3.8-2.3-3.7-2.6 0-.2 1.4 0 3.6.8-.8-7.4-2.7-14.4-5.5-21l-.8.7c-2.6 1.7-5.3 2.7-8 3.8-5.5 2-11.2 3-16.5 4-10.5 2-39.3 3.8-65.2 1-13-1.2-25-3.5-33.7-6.5C12 48.7 9 47.2 7 45.6 2.5 55 0 65.2 0 76c0 2 0 4 .3 6 1.8.8 4 1.7 6.5 2.4 9.4 3 22.8 5 37 6z" fill="url(#g)"/>
    <path d="M43.7 92.6c-14.2-1.5-27.5-4-37-7.4-2.3-.8-4.4-1.8-6-2.7 1 12.5 5.3 24.2 12 34 1.2.6 2.7 1 4.4 1.4 8.8 2.2 20.2 3.6 30 4.5 9.7 1 36.3 2.8 60.3.2 9.3-1 18.4-2.5 25.4-5 2.4-3.4 4.5-7 6.3-11l-2.2-1.5c.2 0 .4.2.5.3l1.7 1c3.2-7 5.4-14.4 6.2-22.3-9 5-20.3 6.6-30 8.2-11.5 1.7-43 3.4-71.5.2z" fill="url(#h)"/>
    <path d="M111 138c8-4.8 15-11.3 20.6-19-6.8 2.8-15.3 4.5-24 5.8-24.2 3.7-51.2 3-61 2-10-1-21.7-2.8-30.5-6l-.6-.3c9 11.6 21.3 20.4 35.6 25 2.7.7 5.3 1 7.8 1.2 5.8.5 18.2 1 31 0 7.4-1.8 14.4-4.7 20.8-8.5" fill="url(#i)"/>
    <text fill="#223A80" x="176" y="76" font-family="Helvetica Neue" font-size="74">PENSOPAY</text>
    <text fill="#000" x="182" y="135" font-family="Helvetica" font-size="40" font-style="italic" font-weight="300">Simplified payments</text>
</svg>
